<svg width="100" height="100" viewBox="0 0 400 400" fill="none" xmlns="http://www.w3.org/2000/svg">
<mask id="mask0_114_53" style="mask-type:luminance" maskUnits="userSpaceOnUse" x="1" y="0" width="399" height="399">
<path d="M362.661 0H39.0675C18.4463 0 1.72949 16.7168 1.72949 37.338V360.932C1.72949 381.553 18.4463 398.27 39.0675 398.27H362.661C383.282 398.27 399.999 381.553 399.999 360.932V37.338C399.999 16.7168 383.282 0 362.661 0Z" fill="white"/>
</mask>
<g mask="url(#mask0_114_53)">
<path d="M362.661 0H39.0675C18.4463 0 1.72949 16.7168 1.72949 37.338V360.932C1.72949 381.553 18.4463 398.27 39.0675 398.27H362.661C383.282 398.27 399.999 381.553 399.999 360.932V37.338C399.999 16.7168 383.282 0 362.661 0Z" fill="#FFC738"/>
<path d="M553.197 537.336C411.301 679.232 263.144 674.548 110.304 521.707C37.8228 449.226 -9.43451 357.823 -14.1403 282.171C-18.8461 206.517 17.429 127.699 89.1651 55.9628C158.536 -13.4084 228.685 -45.7404 298.823 -41.821C376.84 -37.9042 468.243 9.35305 546.238 87.3489C697.504 238.614 699.823 390.71 553.197 537.336Z" fill="#FFEEC2" fill-opacity="0.4"/>
<path d="M539.249 521.235C436.214 624.267 328.591 620.823 217.524 509.754C164.852 457.081 130.498 390.672 127.058 335.716C123.618 280.76 149.946 223.516 202.035 171.427C252.407 121.055 303.354 97.5887 354.304 100.456C410.977 103.324 477.385 137.678 534.067 194.357C643.988 304.281 645.716 414.765 539.249 521.235Z" fill="#FFEEC2" fill-opacity="0.4"/>
<path d="M524.803 504.638C460.307 569.136 392.89 566.933 323.269 497.313C290.252 464.299 268.705 422.684 266.527 388.258C264.35 353.832 280.818 317.985 313.426 285.377C344.956 253.845 376.861 239.167 408.777 240.984C444.281 242.804 485.893 264.351 521.42 299.878C590.325 368.783 591.452 437.991 524.803 504.638Z" fill="#FFEEC2" fill-opacity="0.4"/>
<path d="M512.217 490.186C481.357 521.046 449.078 519.971 415.725 486.62C399.907 470.803 389.58 450.873 388.525 434.388C387.472 417.907 395.348 400.748 410.948 385.145C426.038 370.058 441.307 363.041 456.588 363.919C473.586 364.803 493.516 375.131 510.536 392.151C543.545 425.16 544.107 458.296 512.217 490.186Z" fill="#FFEEC2" fill-opacity="0.4"/>
</g>
<path d="M215.064 176.867C233.375 176.867 242.633 186.735 242.633 206.471C242.633 215.83 239.784 224.782 235.206 229.97C230.629 235.159 223.202 237.905 213.945 237.905C204.992 237.905 198.38 235.464 194.107 230.683C189.326 225.393 186.478 216.44 186.478 206.369C186.478 186.837 196.142 176.867 215.064 176.867ZM214.86 194.873C207.637 194.873 203.873 199.553 203.873 208.404C203.873 217.966 207.739 223.358 214.555 223.358C221.371 223.358 225.339 217.661 225.339 207.895C225.339 199.248 221.88 194.873 214.86 194.873Z" fill="#071003"/>
<path d="M303.425 178.902V235.871H285.114V229.869C285.114 227.936 285.215 227.428 285.724 223.765H285.114C283.384 228.75 282.163 230.887 279.824 233.125C276.67 236.278 272.295 237.906 267.412 237.906C261.41 237.906 256.12 235.464 253.17 231.293C251.542 228.954 250.22 224.986 249.813 220.612C249.711 218.882 249.61 215.424 249.61 206.675V178.902H268.735V206.166C268.735 215.322 268.837 216.136 269.956 218.069C271.176 220.001 273.313 221.12 275.958 221.12C279.518 221.12 282.367 219.086 283.486 215.83C284.198 213.592 284.3 212.575 284.3 206.166V178.902H303.425Z" fill="#071003"/>
<path d="M160.223 235.993V160.289H179.149V235.993H160.223Z" fill="#071003"/>
<path d="M131.382 235.993V160.289H150.759V235.993H131.382Z" fill="#071003"/>
<path d="M48.0144 168.399H93.9778V185.38H65.9736V196.563H93.9778V212.324H65.9736V235.993H48.0144V168.399Z" fill="#071003"/>
<path d="M102.802 235.874L102.802 179.521C106.26 180.844 108.498 181.251 112.059 181.251C115.518 181.251 118.265 180.742 121.927 179.521L121.927 235.874H102.802Z" fill="#071003"/>
<path d="M112.148 176.205C104.796 176.205 101.079 173.632 101.079 168.486C101.079 166.046 102.223 163.712 104.061 162.359C105.899 161.006 108.881 160.29 112.598 160.29C116.192 160.29 118.847 160.927 120.562 162.173C122.482 163.553 123.626 165.887 123.626 168.513C123.626 173.606 119.745 176.205 112.148 176.205Z" fill="#071003"/>
<path fill-rule="evenodd" clip-rule="evenodd" d="M323.463 168.246C323.463 182.692 318.384 185.297 308.923 185.297V196.501H318.384C317.977 202.503 317.875 206.166 317.875 211.964C317.875 222.239 318.791 227.427 321.232 231.293C323.979 235.566 329.371 237.906 336.492 237.906C343.817 237.906 348.598 235.973 353.583 230.988V217.763C350.531 221.629 347.275 223.358 343.308 223.358C340.866 223.358 338.73 222.341 337.713 220.713C336.594 218.984 336.187 216.339 336.187 211.659C336.187 205.148 335.882 196.501 335.882 196.501H353.583V178.856H335.882V168.246H323.463Z" fill="#071003"/>
</svg>
